<svg xmlns="http://www.w3.org/2000/svg" viewBox="0 0 860 256" width="860" height="256" role="img" aria-label="OpenSight — lockup horizontal">
  <title>OpenSight — Lockup horizontal (símbolo + wordmark)</title>

  <defs>
    <linearGradient id="plateL" x1="0" y1="0" x2="0" y2="1">
      <stop offset="0" stop-color="#363B45"/><stop offset="1" stop-color="#171A20"/>
    </linearGradient>
    <linearGradient id="featherL" x1="0" y1="0" x2="0" y2="1">
      <stop offset="0" stop-color="#4B515C"/><stop offset="1" stop-color="#23262E"/>
    </linearGradient>
    <linearGradient id="beakL" x1="0" y1="0" x2="0" y2="1">
      <stop offset="0" stop-color="#C9B07A"/><stop offset="0.55" stop-color="#8A7437"/><stop offset="1" stop-color="#4A3C1C"/>
    </linearGradient>
    <filter id="glowL" x="-120%" y="-120%" width="340%" height="340%">
      <feGaussianBlur stdDeviation="4.5" result="b"/>
      <feMerge><feMergeNode in="b"/><feMergeNode in="SourceGraphic"/></feMerge>
    </filter>
  </defs>

  <!-- ===== SÍMBOLO DA HARPIA (à esquerda) ===== -->
  <g transform="translate(-28,2)">
    <g fill="url(#featherL)" stroke="#5A616C" stroke-width="1.4" stroke-linejoin="round">
      <polygon points="128,92 98,98 70,30"/>
      <polygon points="128,92 158,98 186,30"/>
      <polygon points="124,94 110,100 102,48"/>
      <polygon points="132,94 146,100 154,48"/>
    </g>
    <g fill="none" stroke="#C8962C" stroke-width="1.5" stroke-linecap="round">
      <line x1="70" y1="30" x2="83" y2="62"/>
      <line x1="186" y1="30" x2="173" y2="62"/>
    </g>
    <polygon points="96,90 160,90 178,114 172,150 150,180 128,198 106,180 84,150 78,114"
             fill="url(#plateL)" stroke="#5A616C" stroke-width="2.2" stroke-linejoin="round"/>
    <g stroke="#3A3F49" stroke-width="1.1" fill="none" opacity="0.9">
      <line x1="84" y1="150" x2="108" y2="178"/>
      <line x1="172" y1="150" x2="148" y2="178"/>
    </g>
    <g fill="#0E1014" stroke="#5A616C" stroke-width="1.3" stroke-linejoin="round">
      <polygon points="82,116 122,131 122,140 82,127"/>
      <polygon points="174,116 134,131 134,140 174,127"/>
    </g>
    <polygon points="152,137 162,145 162,157 152,164 142,157 142,145" fill="#1C1F26" stroke="#5A616C" stroke-width="1.3"/>
    <polygon points="152,143 157,148 157,154 152,158 147,154 147,148" fill="#0A0B0D"/>
    <g filter="url(#glowL)">
      <polygon points="104,137 114,145 114,157 104,164 94,157 94,145" fill="#6A040F" stroke="#A11521" stroke-width="1"/>
      <circle cx="104" cy="150.5" r="6" fill="#F03A24"/>
      <circle cx="104" cy="150.5" r="2.4" fill="#FF6A5A"/>
    </g>
    <polygon points="120,138 136,138 140,158 132,176 128,187 124,176 116,158"
             fill="url(#beakL)" stroke="#7A6428" stroke-width="1.4" stroke-linejoin="round"/>
    <circle cx="124" cy="148" r="1.4" fill="#3A2F12"/>
    <circle cx="132" cy="148" r="1.4" fill="#3A2F12"/>
    <polygon points="124,176 132,176 128,187" fill="#2A220E"/>
  </g>

  <!-- divisor em latão -->
  <line x1="246" y1="64" x2="246" y2="192" stroke="#C8962C" stroke-width="1.6" opacity="0.8"/>

  <!-- ===== WORDMARK ===== -->
  <text x="280" y="124" font-family="'Chakra Petch','Saira',sans-serif"
        font-size="66" font-weight="700" letter-spacing="2" fill="#E8E4DB">OPEN<tspan fill="#C1121F">SIGHT</tspan></text>
  <text x="282" y="158" font-family="'Chakra Petch','Saira',sans-serif"
        font-size="15" font-weight="600" letter-spacing="7" fill="#8C929C">VIGIA. PREVÊ. PROTEGE.</text>
</svg>
